<svg width="8" height="7" viewBox="0 0 8 7" fill="none" xmlns="http://www.w3.org/2000/svg">
<path d="M4.71329 5.80471C4.48878 6.4957 3.51122 6.4957 3.28671 5.80471L3.04582 5.06332C2.94541 4.75431 2.65744 4.54508 2.33252 4.54508H1.55298C0.826437 4.54508 0.524356 3.61537 1.11214 3.18832L1.7428 2.73012C2.00567 2.53914 2.11566 2.20061 2.01526 1.89159L1.77437 1.1502C1.54985 0.45922 2.34071 -0.115374 2.9285 0.311677L3.55916 0.769882C3.82203 0.960865 4.17797 0.960865 4.44084 0.769882L5.0715 0.311677C5.65929 -0.115374 6.45015 0.45922 6.22563 1.1502L5.98474 1.89159C5.88434 2.20061 5.99433 2.53914 6.2572 2.73012L6.88786 3.18832C7.47564 3.61537 7.17356 4.54508 6.44702 4.54508H5.66748C5.34256 4.54508 5.05459 4.75431 4.95418 5.06332L4.71329 5.80471Z" fill="#E60000"/>
</svg>
